<svg xmlns="http://www.w3.org/2000/svg" xmlns:xlink="http://www.w3.org/1999/xlink" width="440" zoomAndPan="magnify" viewBox="0 0 330 329.999987" height="440" preserveAspectRatio="xMidYMid meet" version="1.0"><defs><g/><clipPath id="492561ea69"><path d="M 78 58 L 160 58 L 160 170.601562 L 78 170.601562 Z M 78 58 " clip-rule="nonzero"/></clipPath><clipPath id="c3f3ad24b9"><rect x="0" width="328" y="0" height="171"/></clipPath></defs><g transform="matrix(1, 0, 0, 1, 2, 79)"><g clip-path="url(#c3f3ad24b9)"><g fill="#ffffff" fill-opacity="1"><g transform="translate(0.766489, 136.708255)"><g><path d="M 43.265625 1.140625 C 38.441406 1.140625 34.066406 0.191406 30.140625 -1.703125 C 26.222656 -3.597656 23.101562 -6.4375 20.78125 -10.21875 C 18.46875 -14 17.265625 -18.679688 17.171875 -24.265625 C 17.171875 -27.566406 17.21875 -31.296875 17.3125 -35.453125 C 17.40625 -39.617188 17.546875 -43.851562 17.734375 -48.15625 C 17.921875 -52.457031 18.203125 -56.550781 18.578125 -60.4375 C 18.671875 -61.1875 18.429688 -61.796875 17.859375 -62.265625 C 17.296875 -62.742188 16.6875 -62.984375 16.03125 -62.984375 C 14.332031 -62.984375 12.582031 -62.984375 10.78125 -62.984375 C 8.988281 -62.984375 7.238281 -62.9375 5.53125 -62.84375 C 4.488281 -62.75 3.585938 -63.101562 2.828125 -63.90625 C 2.078125 -64.707031 1.703125 -65.628906 1.703125 -66.671875 L 1.703125 -73.34375 C 1.703125 -74.382812 2.078125 -75.28125 2.828125 -76.03125 C 3.585938 -76.789062 4.488281 -77.171875 5.53125 -77.171875 L 16.03125 -77.171875 C 17.726562 -77.171875 18.578125 -78.066406 18.578125 -79.859375 C 18.578125 -81.660156 18.625 -83.53125 18.71875 -85.46875 C 18.820312 -87.40625 18.96875 -89.273438 19.15625 -91.078125 C 19.4375 -93.441406 20.617188 -94.765625 22.703125 -95.046875 C 23.929688 -95.234375 25.132812 -95.375 26.3125 -95.46875 C 27.5 -95.5625 28.660156 -95.609375 29.796875 -95.609375 C 31.023438 -95.609375 32.207031 -95.5625 33.34375 -95.46875 C 34.476562 -95.375 35.660156 -95.234375 36.890625 -95.046875 C 37.828125 -94.953125 38.675781 -94.550781 39.4375 -93.84375 C 40.195312 -93.132812 40.476562 -92.210938 40.28125 -91.078125 C 40.1875 -89.179688 40.019531 -87.359375 39.78125 -85.609375 C 39.550781 -83.859375 39.4375 -81.992188 39.4375 -80.015625 C 39.4375 -78.117188 40.285156 -77.171875 41.984375 -77.171875 C 45.015625 -77.171875 48.488281 -77.191406 52.40625 -77.234375 C 56.332031 -77.285156 59.765625 -77.359375 62.703125 -77.453125 C 63.742188 -77.453125 64.640625 -77.070312 65.390625 -76.3125 C 66.148438 -75.5625 66.53125 -74.664062 66.53125 -73.625 L 66.53125 -65.96875 C 66.53125 -64.925781 66.148438 -64.003906 65.390625 -63.203125 C 64.640625 -62.398438 63.742188 -62.046875 62.703125 -62.140625 C 61.472656 -62.328125 59.628906 -62.46875 57.171875 -62.5625 C 54.710938 -62.65625 52.253906 -62.75 49.796875 -62.84375 C 47.335938 -62.9375 45.445312 -62.9375 44.125 -62.84375 C 40.71875 -62.84375 38.773438 -61.09375 38.296875 -57.59375 C 37.921875 -52.675781 37.734375 -47.425781 37.734375 -41.84375 C 37.734375 -36.269531 37.78125 -31.398438 37.875 -27.234375 C 38.0625 -23.546875 39.097656 -20.921875 40.984375 -19.359375 C 42.878906 -17.796875 45.203125 -17.015625 47.953125 -17.015625 C 49.085938 -17.015625 50.644531 -17.226562 52.625 -17.65625 C 54.613281 -18.082031 56.578125 -18.601562 58.515625 -19.21875 C 60.453125 -19.832031 61.847656 -20.425781 62.703125 -21 C 63.929688 -22.320312 65.207031 -22.648438 66.53125 -21.984375 C 67.851562 -21.328125 68.46875 -20.003906 68.375 -18.015625 C 68.375 -15.929688 68.347656 -14.015625 68.296875 -12.265625 C 68.253906 -10.515625 68.234375 -8.695312 68.234375 -6.8125 C 68.140625 -4.632812 67.289062 -3.164062 65.6875 -2.40625 C 63.976562 -1.65625 61.726562 -0.992188 58.9375 -0.421875 C 56.144531 0.140625 53.332031 0.539062 50.5 0.78125 C 47.664062 1.019531 45.253906 1.140625 43.265625 1.140625 Z M 43.265625 1.140625 "/></g></g></g><g clip-path="url(#492561ea69)"><g fill="#ffffff" fill-opacity="1"><g transform="translate(75.812071, 136.708255)"><g><path d="M 40.140625 33.765625 C 36.640625 33.765625 32.832031 33.644531 28.71875 33.40625 C 24.613281 33.164062 20.570312 32.785156 16.59375 32.265625 C 12.625 31.753906 9.125 31.023438 6.09375 30.078125 C 3.832031 29.316406 2.796875 27.707031 2.984375 25.25 C 3.265625 22.789062 3.5 20.1875 3.6875 17.4375 C 3.875 14.695312 4.109375 12.144531 4.390625 9.78125 C 4.585938 8.175781 5.273438 7.160156 6.453125 6.734375 C 7.640625 6.304688 8.75 6.660156 9.78125 7.796875 C 13.09375 9.972656 17.066406 11.695312 21.703125 12.96875 C 26.335938 14.25 30.878906 14.890625 35.328125 14.890625 C 40.429688 14.890625 45.0625 13.707031 49.21875 11.34375 C 53.382812 8.976562 56.695312 5.953125 59.15625 2.265625 C 61.613281 -1.421875 62.84375 -5.203125 62.84375 -9.078125 L 62.84375 -10.921875 C 62.84375 -12.523438 62.414062 -13.375 61.5625 -13.46875 C 60.71875 -13.570312 60.007812 -12.957031 59.4375 -11.625 C 56.976562 -6.707031 53.691406 -3.347656 49.578125 -1.546875 C 45.460938 0.242188 40.757812 1.140625 35.46875 1.140625 C 28.28125 1.140625 22.390625 -0.515625 17.796875 -3.828125 C 13.210938 -7.140625 9.804688 -11.726562 7.578125 -17.59375 C 5.359375 -23.457031 4.25 -30.265625 4.25 -38.015625 C 4.25 -41.703125 4.320312 -45.269531 4.46875 -48.71875 C 4.613281 -52.175781 4.847656 -55.867188 5.171875 -59.796875 C 5.503906 -63.722656 5.859375 -68.191406 6.234375 -73.203125 C 6.523438 -75.472656 7.660156 -76.84375 9.640625 -77.3125 C 10.773438 -77.5 12.050781 -77.640625 13.46875 -77.734375 C 14.894531 -77.828125 15.984375 -77.875 16.734375 -77.875 C 17.585938 -77.875 18.957031 -77.828125 20.84375 -77.734375 C 22.738281 -77.640625 24.347656 -77.5 25.671875 -77.3125 C 26.617188 -77.125 27.421875 -76.695312 28.078125 -76.03125 C 28.742188 -75.375 28.984375 -74.476562 28.796875 -73.34375 C 28.328125 -70.03125 27.832031 -66.503906 27.3125 -62.765625 C 26.789062 -59.035156 26.363281 -55.421875 26.03125 -51.921875 C 25.695312 -48.421875 25.53125 -45.300781 25.53125 -42.5625 C 25.53125 -34.894531 26.972656 -28.695312 29.859375 -23.96875 C 32.742188 -19.238281 37.445312 -16.875 43.96875 -16.875 C 49.175781 -16.875 53.222656 -19.378906 56.109375 -24.390625 C 58.992188 -29.410156 60.4375 -35.796875 60.4375 -43.546875 C 60.4375 -47.710938 60.222656 -52.394531 59.796875 -57.59375 C 59.367188 -62.789062 58.679688 -67.992188 57.734375 -73.203125 C 57.546875 -74.335938 57.78125 -75.257812 58.4375 -75.96875 C 59.101562 -76.675781 59.863281 -77.125 60.71875 -77.3125 C 61.757812 -77.5 63.15625 -77.640625 64.90625 -77.734375 C 66.65625 -77.828125 68.144531 -77.875 69.375 -77.875 C 70.695312 -77.875 72.085938 -77.828125 73.546875 -77.734375 C 75.015625 -77.640625 76.316406 -77.5 77.453125 -77.3125 C 79.535156 -77.03125 80.671875 -75.660156 80.859375 -73.203125 C 81.429688 -65.828125 81.878906 -59.253906 82.203125 -53.484375 C 82.535156 -47.710938 82.796875 -42.269531 82.984375 -37.15625 C 83.171875 -32.050781 83.265625 -26.898438 83.265625 -21.703125 C 83.265625 -16.503906 83.265625 -10.832031 83.265625 -4.6875 C 83.265625 2.21875 82.054688 8.101562 79.640625 12.96875 C 77.234375 17.84375 73.972656 21.816406 69.859375 24.890625 C 65.742188 27.960938 61.109375 30.207031 55.953125 31.625 C 50.804688 33.050781 45.535156 33.765625 40.140625 33.765625 Z M 40.140625 33.765625 "/></g></g></g></g><g fill="#ffffff" fill-opacity="1"><g transform="translate(166.888124, 136.708255)"><g><path d="M 43.828125 1.140625 C 35.503906 1.140625 28.242188 -0.441406 22.046875 -3.609375 C 15.859375 -6.785156 11.0625 -11.398438 7.65625 -17.453125 C 4.25 -23.503906 2.546875 -30.832031 2.546875 -39.4375 C 2.546875 -47.757812 4.175781 -54.804688 7.4375 -60.578125 C 10.707031 -66.347656 15.175781 -70.742188 20.84375 -73.765625 C 26.519531 -76.796875 32.953125 -78.3125 40.140625 -78.3125 C 50.171875 -78.3125 58.28125 -76.0625 64.46875 -71.5625 C 70.664062 -67.070312 73.765625 -60.476562 73.765625 -51.78125 C 73.765625 -47.144531 72.507812 -43.050781 70 -39.5 C 67.5 -35.957031 64.191406 -33.21875 60.078125 -31.28125 C 55.960938 -29.34375 51.539062 -28.375 46.8125 -28.375 C 42.9375 -28.375 39.175781 -28.703125 35.53125 -29.359375 C 31.894531 -30.023438 28.703125 -31.113281 25.953125 -32.625 C 24.535156 -33.570312 23.492188 -33.644531 22.828125 -32.84375 C 22.171875 -32.039062 22.316406 -30.976562 23.265625 -29.65625 C 24.398438 -27 26.21875 -24.628906 28.71875 -22.546875 C 31.226562 -20.472656 34.085938 -18.84375 37.296875 -17.65625 C 40.515625 -16.476562 43.734375 -15.890625 46.953125 -15.890625 C 50.640625 -15.890625 54.5625 -16.691406 58.71875 -18.296875 C 62.882812 -19.910156 66.289062 -21.945312 68.9375 -24.40625 C 69.976562 -25.726562 71.085938 -26.175781 72.265625 -25.75 C 73.453125 -25.320312 74.09375 -24.160156 74.1875 -22.265625 C 74.375 -20.191406 74.492188 -18.066406 74.546875 -15.890625 C 74.597656 -13.710938 74.671875 -11.582031 74.765625 -9.5 C 74.765625 -7.707031 74.148438 -6.429688 72.921875 -5.671875 C 69.421875 -3.304688 64.953125 -1.578125 59.515625 -0.484375 C 54.078125 0.597656 48.847656 1.140625 43.828125 1.140625 Z M 41.28125 -39.296875 C 45.34375 -39.296875 48.554688 -40.3125 50.921875 -42.34375 C 53.285156 -44.375 54.46875 -47.140625 54.46875 -50.640625 C 54.46875 -54.328125 53.378906 -57.210938 51.203125 -59.296875 C 49.035156 -61.378906 45.445312 -62.421875 40.4375 -62.421875 C 37.59375 -62.421875 34.800781 -61.828125 32.0625 -60.640625 C 29.320312 -59.460938 27.078125 -57.785156 25.328125 -55.609375 C 23.578125 -53.429688 22.703125 -50.785156 22.703125 -47.671875 C 22.703125 -45.773438 23.738281 -44.1875 25.8125 -42.90625 C 27.894531 -41.632812 30.378906 -40.710938 33.265625 -40.140625 C 36.148438 -39.578125 38.820312 -39.296875 41.28125 -39.296875 Z M 41.28125 -39.296875 "/></g></g></g><g fill="#ffffff" fill-opacity="1"><g transform="translate(249.878005, 136.708255)"><g><path d="M 37.875 1 C 34.5625 1 30.96875 0.757812 27.09375 0.28125 C 23.21875 -0.1875 19.4375 -0.800781 15.75 -1.5625 C 12.0625 -2.320312 8.84375 -3.125 6.09375 -3.96875 C 5.0625 -4.445312 4.210938 -5.085938 3.546875 -5.890625 C 2.878906 -6.691406 2.597656 -7.707031 2.703125 -8.9375 C 2.890625 -11.300781 3.03125 -13.617188 3.125 -15.890625 C 3.21875 -18.160156 3.3125 -20.476562 3.40625 -22.84375 C 3.59375 -24.914062 4.320312 -26.117188 5.59375 -26.453125 C 6.875 -26.785156 7.988281 -26.382812 8.9375 -25.25 C 11.113281 -23.457031 13.757812 -21.828125 16.875 -20.359375 C 20 -18.890625 23.3125 -17.753906 26.8125 -16.953125 C 30.3125 -16.148438 33.617188 -15.75 36.734375 -15.75 C 41.554688 -15.75 45.222656 -16.335938 47.734375 -17.515625 C 50.242188 -18.703125 51.5 -20.664062 51.5 -23.40625 C 51.5 -25.488281 50.363281 -27.191406 48.09375 -28.515625 C 45.820312 -29.835938 42.910156 -31.019531 39.359375 -32.0625 C 35.816406 -33.101562 32.054688 -34.191406 28.078125 -35.328125 C 24.109375 -36.460938 20.347656 -37.925781 16.796875 -39.71875 C 13.253906 -41.519531 10.347656 -43.789062 8.078125 -46.53125 C 5.816406 -49.269531 4.6875 -52.769531 4.6875 -57.03125 C 4.6875 -61.664062 6.175781 -65.539062 9.15625 -68.65625 C 12.132812 -71.78125 16.222656 -74.144531 21.421875 -75.75 C 26.617188 -77.363281 32.53125 -78.171875 39.15625 -78.171875 C 42.65625 -78.171875 46.71875 -77.910156 51.34375 -77.390625 C 55.976562 -76.867188 59.953125 -76.085938 63.265625 -75.046875 C 65.722656 -74.097656 66.953125 -72.488281 66.953125 -70.21875 C 67.046875 -68.332031 67.09375 -66.414062 67.09375 -64.46875 C 67.09375 -62.53125 67.09375 -60.617188 67.09375 -58.734375 C 67.09375 -56.367188 66.476562 -55.039062 65.25 -54.75 C 64.019531 -54.46875 62.882812 -54.800781 61.84375 -55.75 C 59.195312 -57.644531 55.9375 -59.207031 52.0625 -60.4375 C 48.1875 -61.664062 44.3125 -62.28125 40.4375 -62.28125 C 36.363281 -62.28125 32.90625 -61.640625 30.0625 -60.359375 C 27.226562 -59.085938 25.8125 -57.363281 25.8125 -55.1875 C 25.8125 -53.289062 26.945312 -51.726562 29.21875 -50.5 C 31.488281 -49.269531 34.394531 -48.15625 37.9375 -47.15625 C 41.488281 -46.164062 45.25 -45.054688 49.21875 -43.828125 C 53.195312 -42.597656 56.957031 -41.0625 60.5 -39.21875 C 64.050781 -37.375 66.957031 -35.054688 69.21875 -32.265625 C 71.488281 -29.484375 72.625 -25.914062 72.625 -21.5625 C 72.625 -14.75 69.671875 -9.285156 63.765625 -5.171875 C 57.859375 -1.054688 49.226562 1 37.875 1 Z M 37.875 1 "/></g></g></g></g></g></svg>