<svg width="32" height="32" viewBox="0 0 32 32" fill="none" xmlns="http://www.w3.org/2000/svg">
<g clip-path="url(#clip0_5_14)">
<path fill-rule="evenodd" clip-rule="evenodd" d="M19.7349 1.73757L16.87 13.8997L23.4441 3.274C23.6478 2.94492 24.105 2.89179 24.3786 3.16542L28.8346 7.62141C29.1082 7.89504 29.0551 8.3523 28.726 8.55591L18.1003 15.1301L30.2625 12.2652C30.6391 12.1764 31 12.4622 31 12.8492V19.1509C31 19.5379 30.6391 19.8237 30.2625 19.7349L18.1003 16.87L28.726 23.4442C29.0551 23.6478 29.1082 24.105 28.8346 24.3787L24.3786 28.8346C24.105 29.1082 23.6478 29.0551 23.4441 28.726L16.87 18.1003L19.7349 30.2625C19.8237 30.6391 19.5378 31 19.1509 31H12.8491C12.4622 31 12.1764 30.6391 12.2651 30.2625L15.13 18.1003L8.55589 28.726C8.3523 29.0551 7.89502 29.1082 7.62139 28.8346L3.16542 24.3786C2.89179 24.105 2.94492 23.6478 3.274 23.4441L13.8996 16.87L1.73757 19.7349C1.36091 19.8237 1 19.5379 1 19.1509V12.8492C1 12.4622 1.36091 12.1764 1.73757 12.2652L13.8997 15.13L3.274 8.55592C2.94492 8.35231 2.89179 7.89504 3.16542 7.62141L7.62139 3.16543C7.89502 2.8918 8.3523 2.94493 8.55589 3.27402L15.13 13.8997L12.2651 1.73757C12.1764 1.36091 12.4622 1 12.8491 1L19.1509 1C19.5379 1 19.8237 1.36091 19.7349 1.73757ZM16 17.7144C16.9468 17.7144 17.7144 16.9468 17.7144 16C17.7144 15.0532 16.9468 14.2857 16 14.2857C15.0532 14.2857 14.2857 15.0532 14.2857 16C14.2857 16.9468 15.0532 17.7144 16 17.7144Z" fill="#FF516F"/>
</g>
<defs>
<clipPath id="clip0_5_14">
<rect width="30" height="30" fill="white" transform="translate(1 1)"/>
</clipPath>
</defs>
</svg>
