<svg width="374" height="66" viewBox="0 0 374 66" fill="none" xmlns="http://www.w3.org/2000/svg">
<g clip-path="url(#clip0_5_8)">
<path d="M26.08 3.6C40.24 3.6 49.26 10.74 49.26 22.44H39.1C39.1 16.36 33.8 12.54 25.96 12.54C19.4 12.54 12.88 15.22 12.88 20.92C12.88 26.08 17.98 26.94 26.72 28.24L29.38 28.62C39 30.06 51.26 31.92 51.26 45.22C51.26 57.16 41.34 63.2 26.7 63.2C10.76 63.2 1.56 56.06 1.56 43.84H11.72C11.72 50.36 17.42 54.26 26.6 54.26C34.44 54.26 40.9 51.4 40.9 45.26C40.9 39.6 35.66 38.76 27.66 37.6L24.3 37.1C14.68 35.7 2.52 33.98 2.52 21.38C2.52 9.68 12.98 3.6 26.08 3.6ZM100.197 4.8V14.08H81.5969V62H71.0769V14.08H52.4769V4.8H100.197ZM105.871 62H94.9113L115.431 4.8H130.591L150.831 62H139.651L135.131 48.54H110.451L105.871 62ZM113.491 39.58H132.131L122.871 11.94L113.491 39.58ZM164.772 62H154.252V4.8H182.232C194.352 4.8 202.252 11.64 202.252 21.86C202.252 30.88 195.992 36.84 186.372 37.12C190.752 37.44 194.172 40.54 196.672 46.1L203.792 62H192.172L185.012 46.14C183.012 41.72 180.732 40.36 175.072 40.36H164.772V62ZM164.772 31.36H180.952C187.712 31.36 191.712 28.06 191.712 22.46C191.712 16.96 187.852 13.9 180.932 13.9H164.772V31.36ZM208.783 62V4.8H235.583C248.023 4.8 256.763 12.54 256.763 23.54C256.763 34.56 247.983 42.36 235.583 42.36H219.303V62H208.783ZM219.303 33.24H234.903C241.883 33.24 246.243 29.52 246.243 23.54C246.243 17.6 241.943 13.92 235.043 13.92H219.303V33.24ZM272.194 4.8V62H261.674V4.8H272.194ZM317.473 4.8V14.08H288.913V29.76H315.113V38.88H288.913V62H278.393V4.8H317.473ZM361.764 4.8H373.344L351.424 40.74V62H340.904V40.78L319.164 4.8H331.004L346.284 30.88L361.764 4.8Z" fill="#FAFAFA"/>
</g>
<defs>
<clipPath id="clip0_5_8">
<rect width="374" height="66" fill="white"/>
</clipPath>
</defs>
</svg>
