<svg width="180" height="180" viewBox="0 0 180 180" fill="none" xmlns="http://www.w3.org/2000/svg">
<g clip-path="url(#clip0_1_107)">
<path fill-rule="evenodd" clip-rule="evenodd" d="M112.409 4.42542L95.22 77.3983L134.664 13.644C135.886 11.6695 138.63 11.3507 140.271 12.9925L167.008 39.7284C168.649 41.3702 168.331 44.1138 166.356 45.3354L102.602 84.7804L175.575 67.5909C177.835 67.0585 180 68.7732 180 71.095V108.905C180 111.227 177.835 112.942 175.575 112.409L102.602 95.22L166.356 134.665C168.331 135.887 168.649 138.63 167.008 140.272L140.271 167.008C138.63 168.649 135.886 168.331 134.664 166.356L95.22 102.602L112.409 175.575C112.942 177.835 111.226 180 108.905 180H71.0949C68.773 180 67.0585 177.835 67.5908 175.575L84.7803 102.602L45.3353 166.356C44.1138 168.331 41.3701 168.649 39.7283 167.008L12.9925 140.271C11.3507 138.63 11.6695 135.886 13.644 134.664L77.3977 95.22L4.42543 112.409C2.16545 112.942 0 111.227 0 108.905V71.095C1.75423e-06 68.7731 2.16544 67.0585 4.42543 67.5909L77.3982 84.7803L13.644 45.3355C11.6695 44.1139 11.3507 41.3702 12.9925 39.7284L39.7283 12.9926C41.3701 11.3508 44.1138 11.6696 45.3353 13.6441L84.7803 77.3985L67.5908 4.42543C67.0585 2.16545 68.773 3.50845e-06 71.0949 3.30547e-06L108.905 0C111.227 0 112.942 2.16544 112.409 4.42542ZM90 100.286C95.6808 100.286 100.286 95.6808 100.286 90C100.286 84.3194 95.6808 79.7143 90 79.7143C84.3194 79.7143 79.7143 84.3194 79.7143 90C79.7143 95.6808 84.3194 100.286 90 100.286Z" fill="#FF516F"/>
</g>
<defs>
<clipPath id="clip0_1_107">
<rect width="180" height="180" fill="white"/>
</clipPath>
</defs>
</svg>
