<svg xmlns="http://www.w3.org/2000/svg" xmlns:xlink="http://www.w3.org/1999/xlink" width="440" zoomAndPan="magnify" viewBox="0 0 330 329.999987" height="440" preserveAspectRatio="xMidYMid meet" version="1.0"><defs><clipPath id="8e7ee82a3d"><path d="M 21.609375 57.375 L 309 57.375 L 309 273 L 21.609375 273 Z M 21.609375 57.375 " clip-rule="nonzero"/></clipPath><clipPath id="817cd7aeab"><path d="M 32.898438 123.941406 L 21.609375 138.722656 L 51.183594 161.304688 L 62.476562 146.523438 L 47.695312 135.234375 L 32.914062 123.941406 Z M 212.867188 135.234375 L 208.316406 153.28125 Z M 217.714844 82.375 L 210.121094 65.386719 Z M 158.097656 152.085938 L 139.839844 148.507812 Z M 61.445312 117.214844 L 76.226562 128.507812 Z M 47.679688 135.234375 L 62.460938 146.523438 L 76.226562 128.507812 L 61.445312 117.214844 L 46.664062 105.925781 L 32.898438 123.941406 Z M 140.003906 103.671875 L 130.9375 119.914062 C 158.007812 135.023438 173.550781 144.496094 208.316406 153.265625 L 212.867188 135.21875 L 217.414062 117.171875 C 187.882812 109.726562 176.144531 102.523438 149.074219 87.398438 Z M 212.867188 135.234375 L 208.316406 153.28125 C 218.25 155.785156 230.09375 157.667969 241.414062 159.082031 L 246.039062 122.152344 C 235.296875 120.8125 225.1875 119.15625 217.429688 117.199219 L 212.882812 135.25 Z M 284.683594 94.515625 L 299.628906 83.417969 C 274.554688 49.648438 233.941406 54.734375 210.121094 65.386719 L 217.714844 82.375 L 225.304688 99.363281 C 242.695312 91.578125 260.207031 92.769531 269.738281 105.597656 L 284.683594 94.5 Z M 217.714844 82.390625 L 210.121094 65.386719 C 189.554688 74.589844 173.550781 85.445312 161.78125 99.585938 C 149.910156 113.875 143.433594 130.191406 139.839844 148.492188 L 158.097656 152.074219 L 176.351562 155.652344 C 179.082031 141.707031 183.496094 131.652344 190.390625 123.375 C 197.382812 114.964844 208.035156 107.074219 225.320312 99.347656 L 217.726562 82.359375 Z M 158.097656 152.085938 L 139.839844 148.507812 C 134.859375 173.878906 133.785156 205.214844 133.859375 229.421875 C 133.890625 241.683594 134.21875 252.4375 134.546875 260.132812 C 134.710938 263.980469 134.859375 267.085938 134.980469 269.230469 C 135.039062 270.304688 135.082031 271.140625 135.128906 271.722656 C 135.144531 272.007812 135.15625 272.230469 135.171875 272.394531 C 135.171875 272.46875 135.1875 272.527344 135.1875 272.574219 C 135.1875 272.589844 135.1875 272.617188 135.1875 272.617188 C 135.1875 272.617188 135.1875 272.632812 135.1875 272.632812 C 135.1875 272.632812 135.1875 272.632812 153.757812 271.378906 C 172.328125 270.128906 172.328125 270.128906 172.328125 270.128906 C 172.328125 270.128906 172.328125 270.113281 172.328125 270.097656 C 172.328125 270.082031 172.328125 270.023438 172.3125 269.964844 C 172.296875 269.84375 172.296875 269.648438 172.28125 269.394531 C 172.25 268.890625 172.207031 268.128906 172.148438 267.128906 C 172.042969 265.144531 171.878906 262.222656 171.730469 258.566406 C 171.429688 251.246094 171.101562 240.984375 171.074219 229.304688 C 171.015625 205.617188 172.117188 177.308594 176.367188 155.667969 Z M 243.726562 140.617188 L 241.414062 159.082031 C 261.714844 161.617188 282 153.683594 294.734375 140.558594 C 301.253906 133.847656 306.535156 125 307.996094 114.574219 C 309.515625 103.761719 306.667969 92.902344 299.628906 83.417969 L 269.738281 105.613281 C 271.304688 107.714844 271.214844 108.863281 271.140625 109.414062 C 271.003906 110.371094 270.335938 112.265625 268.039062 114.636719 C 263.160156 119.660156 254.359375 123.195312 246.007812 122.152344 L 243.726562 140.601562 Z M 61.445312 117.214844 L 76.226562 128.507812 C 88.085938 112.996094 111.128906 108.878906 130.921875 119.914062 L 139.988281 103.671875 L 149.058594 87.429688 C 115.933594 68.933594 71.589844 73.277344 46.664062 105.925781 Z M 61.445312 117.214844 " clip-rule="nonzero"/></clipPath><clipPath id="399dc9dd1e"><path d="M 0.609375 0.375 L 288 0.375 L 288 215.640625 L 0.609375 215.640625 Z M 0.609375 0.375 " clip-rule="nonzero"/></clipPath><clipPath id="8568769f52"><path d="M 11.898438 66.941406 L 0.609375 81.722656 L 30.183594 104.304688 L 41.476562 89.523438 L 26.695312 78.234375 L 11.914062 66.941406 Z M 191.867188 78.234375 L 187.316406 96.28125 Z M 196.714844 25.375 L 189.121094 8.386719 Z M 137.097656 95.085938 L 118.839844 91.507812 Z M 40.445312 60.214844 L 55.226562 71.507812 Z M 26.679688 78.234375 L 41.460938 89.523438 L 55.226562 71.507812 L 40.445312 60.214844 L 25.664062 48.925781 L 11.898438 66.941406 Z M 119.003906 46.671875 L 109.9375 62.914062 C 137.007812 78.023438 152.550781 87.496094 187.316406 96.265625 L 191.867188 78.21875 L 196.414062 60.171875 C 166.882812 52.726562 155.144531 45.523438 128.074219 30.398438 Z M 191.867188 78.234375 L 187.316406 96.28125 C 197.25 98.785156 209.09375 100.667969 220.414062 102.082031 L 225.039062 65.152344 C 214.296875 63.8125 204.1875 62.15625 196.429688 60.199219 L 191.882812 78.25 Z M 263.683594 37.515625 L 278.628906 26.417969 C 253.554688 -7.351562 212.941406 -2.265625 189.121094 8.386719 L 196.714844 25.375 L 204.304688 42.363281 C 221.695312 34.578125 239.207031 35.769531 248.738281 48.597656 L 263.683594 37.5 Z M 196.714844 25.390625 L 189.121094 8.386719 C 168.554688 17.589844 152.550781 28.445312 140.78125 42.585938 C 128.910156 56.875 122.433594 73.191406 118.839844 91.492188 L 137.097656 95.074219 L 155.351562 98.652344 C 158.082031 84.707031 162.496094 74.652344 169.390625 66.375 C 176.382812 57.964844 187.035156 50.074219 204.320312 42.347656 L 196.726562 25.359375 Z M 137.097656 95.085938 L 118.839844 91.507812 C 113.859375 116.878906 112.785156 148.214844 112.859375 172.421875 C 112.890625 184.683594 113.21875 195.4375 113.546875 203.132812 C 113.710938 206.980469 113.859375 210.085938 113.980469 212.230469 C 114.039062 213.304688 114.082031 214.140625 114.128906 214.722656 C 114.144531 215.007812 114.15625 215.230469 114.171875 215.394531 C 114.171875 215.46875 114.1875 215.527344 114.1875 215.574219 C 114.1875 215.589844 114.1875 215.617188 114.1875 215.617188 C 114.1875 215.617188 114.1875 215.632812 114.1875 215.632812 C 114.1875 215.632812 114.1875 215.632812 132.757812 214.378906 C 151.328125 213.128906 151.328125 213.128906 151.328125 213.128906 C 151.328125 213.128906 151.328125 213.113281 151.328125 213.097656 C 151.328125 213.082031 151.328125 213.023438 151.3125 212.964844 C 151.296875 212.84375 151.296875 212.648438 151.28125 212.394531 C 151.25 211.890625 151.207031 211.128906 151.148438 210.128906 C 151.042969 208.144531 150.878906 205.222656 150.730469 201.566406 C 150.429688 194.246094 150.101562 183.984375 150.074219 172.304688 C 150.015625 148.617188 151.117188 120.308594 155.367188 98.667969 Z M 222.726562 83.617188 L 220.414062 102.082031 C 240.714844 104.617188 261 96.683594 273.734375 83.558594 C 280.253906 76.847656 285.535156 68 286.996094 57.574219 C 288.515625 46.761719 285.667969 35.902344 278.628906 26.417969 L 248.738281 48.613281 C 250.304688 50.714844 250.214844 51.863281 250.140625 52.414062 C 250.003906 53.371094 249.335938 55.265625 247.039062 57.636719 C 242.160156 62.660156 233.359375 66.195312 225.007812 65.152344 L 222.726562 83.601562 Z M 40.445312 60.214844 L 55.226562 71.507812 C 67.085938 55.996094 90.128906 51.878906 109.921875 62.914062 L 118.988281 46.671875 L 128.058594 30.429688 C 94.933594 11.933594 50.589844 16.277344 25.664062 48.925781 Z M 40.445312 60.214844 " clip-rule="nonzero"/></clipPath><clipPath id="188e38a4d8"><rect x="0" width="288" y="0" height="216"/></clipPath></defs><g clip-path="url(#8e7ee82a3d)"><g clip-path="url(#817cd7aeab)"><g transform="matrix(1, 0, 0, 1, 21, 57)"><g clip-path="url(#188e38a4d8)"><g clip-path="url(#399dc9dd1e)"><g clip-path="url(#8568769f52)"><path fill="#ffffff" d="M 0.609375 0.375 L 287.324219 0.375 L 287.324219 215.625 L 0.609375 215.625 Z M 0.609375 0.375 " fill-opacity="1" fill-rule="nonzero"/></g></g></g></g></g></g></svg>