<svg width="256" height="256" viewBox="0 0 256 256" fill="none" xmlns="http://www.w3.org/2000/svg">
<g clip-path="url(#clip0_5_12)">
<path fill-rule="evenodd" clip-rule="evenodd" d="M150.409 42.4254L133.22 115.398L172.664 51.644C173.886 49.6695 176.63 49.3507 178.271 50.9925L205.008 77.7284C206.649 79.3702 206.331 82.1138 204.356 83.3354L140.602 122.78L213.575 105.591C215.835 105.059 218 106.773 218 109.095V146.905C218 149.227 215.835 150.942 213.575 150.409L140.602 133.22L204.356 172.665C206.331 173.887 206.649 176.63 205.008 178.272L178.271 205.008C176.63 206.649 173.886 206.331 172.664 204.356L133.22 140.602L150.409 213.575C150.942 215.835 149.226 218 146.905 218H109.095C106.773 218 105.058 215.835 105.591 213.575L122.78 140.602L83.3353 204.356C82.1138 206.331 79.3701 206.649 77.7283 205.008L50.9925 178.271C49.3507 176.63 49.6695 173.886 51.644 172.664L115.398 133.22L42.4254 150.409C40.1655 150.942 38 149.227 38 146.905V109.095C38 106.773 40.1654 105.059 42.4254 105.591L115.398 122.78L51.644 83.3355C49.6695 82.1139 49.3507 79.3702 50.9925 77.7284L77.7283 50.9926C79.3701 49.3508 82.1138 49.6696 83.3353 51.6441L122.78 115.398L105.591 42.4254C105.058 40.1655 106.773 38 109.095 38L146.905 38C149.227 38 150.942 40.1654 150.409 42.4254ZM128 138.286C133.681 138.286 138.286 133.681 138.286 128C138.286 122.319 133.681 117.714 128 117.714C122.319 117.714 117.714 122.319 117.714 128C117.714 133.681 122.319 138.286 128 138.286Z" fill="#FF516F"/>
</g>
<defs>
<clipPath id="clip0_5_12">
<rect width="180" height="180" fill="white" transform="translate(38 38)"/>
</clipPath>
</defs>
</svg>
